<?xml version="1.0" standalone="no"?>
<!DOCTYPE svg PUBLIC "-//W3C//DTD SVG 20010904//EN"
 "http://www.w3.org/TR/2001/REC-SVG-20010904/DTD/svg10.dtd">
<svg version="1.0" xmlns="http://www.w3.org/2000/svg"
 width="640.000000pt" height="640.000000pt" viewBox="0 0 640.000000 640.000000"
 preserveAspectRatio="xMidYMid meet">

<g transform="translate(0.000000,640.000000) scale(0.100000,-0.100000)"
fill="#000000" stroke="none">
<path d="M2055 6348 c-577 -229 -1099 -648 -1511 -1213 -73 -99 -142 -209
-180 -285 -36 -73 -124 -285 -124 -297 1 -4 23 38 49 93 47 99 159 304 165
304 2 0 7 -7 10 -16 4 -9 2 -13 -5 -8 -8 4 -9 -1 -4 -17 4 -17 3 -20 -3 -10
-8 11 -11 9 -17 -8 -3 -12 -21 -44 -39 -71 -17 -26 -58 -103 -91 -169 -32 -66
-62 -118 -66 -116 -8 6 -22 -26 -14 -33 3 -3 5 1 5 8 0 7 2 11 5 8 8 -8 -6
-39 -15 -33 -10 6 -35 -63 -26 -72 3 -3 -2 -12 -10 -20 -8 -8 -12 -19 -8 -24
3 -6 1 -16 -5 -23 -30 -35 -118 -385 -157 -616 -20 -126 -20 -863 1 -986 98
-568 351 -1077 766 -1539 203 -226 364 -375 572 -529 162 -121 437 -297 449
-290 6 4 8 3 5 -3 -3 -5 34 -31 83 -57 57 -30 87 -52 84 -60 -7 -17 8 -27 101
-66 128 -53 329 -118 480 -156 120 -30 160 -36 280 -39 120 -3 130 -2 67 5
-178 23 -462 91 -683 165 -218 72 -199 58 -238 172 -61 174 -74 198 -125 228
-25 15 -44 31 -41 35 3 4 -5 6 -17 3 -23 -5 -23 -5 -3 11 16 13 17 15 2 10
-13 -5 -21 2 -31 26 -8 21 -15 28 -18 19 -3 -8 -9 -11 -13 -7 -10 10 14 40 26
32 8 -4 6 18 -6 78 -2 11 7 20 24 26 31 11 76 -2 65 -19 -4 -7 -3 -9 3 -6 11
7 203 -84 219 -104 6 -8 18 -41 27 -74 10 -33 29 -94 45 -135 26 -70 30 -76
70 -90 23 -9 39 -20 35 -25 -4 -4 -2 -5 5 0 8 4 24 3 35 -3 144 -71 601 -160
902 -177 291 -16 638 40 1021 166 l151 49 51 153 50 152 94 48 c286 147 486
295 713 529 176 180 307 347 407 518 179 307 254 485 338 805 42 157 51 187
57 182 2 -3 -3 -30 -12 -61 -9 -32 -14 -63 -12 -70 3 -8 1 -18 -5 -24 -15 -15
-41 -120 -43 -177 -4 -91 -4 -92 -15 -75 -6 9 -6 18 0 24 12 12 13 26 1 26
-14 0 -21 -41 -11 -61 10 -18 -8 -82 -49 -169 -14 -32 -21 -38 -21 -23 0 12 4
24 9 28 5 3 13 20 16 38 4 17 16 49 27 71 14 27 17 41 9 49 -8 8 -11 7 -11 -4
0 -8 -16 -52 -35 -97 -19 -45 -32 -82 -28 -82 3 0 0 -7 -7 -15 -10 -12 -9 -15
6 -16 11 0 14 -3 6 -6 -6 -2 -10 -9 -7 -13 6 -10 -53 -137 -72 -158 -7 -7 -13
-18 -13 -23 0 -5 0 -11 0 -14 0 -3 -16 -34 -35 -70 -19 -35 -35 -67 -35 -70 0
-3 24 -6 53 -6 l52 -1 -64 -13 c-35 -7 -66 -17 -70 -22 -3 -5 -29 -42 -57 -83
-29 -41 -60 -84 -70 -95 -11 -11 -53 -61 -94 -110 -41 -50 -144 -160 -229
-245 -85 -85 -155 -163 -155 -172 -1 -9 -4 -20 -8 -24 -17 -16 -7 -26 11 -10
18 16 20 16 40 -10 16 -20 18 -30 10 -40 -15 -18 -5 -18 30 0 34 18 60 6 30
-13 -12 -7 -18 -8 -14 -2 11 18 -11 12 -28 -7 -10 -10 -14 -22 -10 -25 12 -13
-13 -7 -26 6 -11 10 -13 9 -7 -1 4 -6 -2 -26 -14 -42 -17 -23 -27 -29 -43 -25
-14 4 -17 3 -10 -2 9 -7 7 -14 -10 -28 -42 -37 -262 -181 -351 -230 -102 -57
-108 -67 -166 -253 l-31 -100 -197 -65 c-252 -84 -430 -128 -647 -161 -16 -2
24 -3 90 -1 100 3 145 10 275 43 167 43 321 95 431 144 56 25 70 36 79 62 8
26 24 38 88 70 173 85 346 193 512 320 144 109 210 168 204 178 -3 5 -1 7 4 6
14 -4 123 93 116 103 -3 5 0 8 8 7 7 -2 12 3 10 10 -1 8 1 11 6 8 11 -6 64 47
57 57 -3 4 -2 5 2 2 8 -7 53 35 53 49 0 6 14 22 30 35 16 13 28 27 25 31 -3 5
0 12 6 16 8 5 10 2 5 -7 -4 -8 2 -3 13 10 12 12 19 27 16 31 -3 4 3 14 13 21
15 12 16 12 7 -1 -5 -9 0 -5 12 9 12 14 19 29 16 34 -3 6 -2 7 4 4 12 -8 147
168 139 182 -4 5 -1 13 5 17 8 4 9 3 5 -4 -4 -7 -5 -12 -3 -12 12 0 138 209
208 345 128 249 233 540 289 806 18 88 20 134 20 703 l0 610 -45 174 c-75 287
-193 581 -310 774 -25 40 -455 226 -502 216 -10 -2 4 -30 47 -92 233 -336 389
-697 475 -1101 61 -290 68 -351 69 -600 1 -202 -9 -374 -19 -363 -6 5 -20 438
-19 538 1 49 -1 76 -6 65 -5 -14 -10 1 -15 50 -8 79 -49 292 -71 375 -76 274
-132 423 -238 631 -80 158 -142 260 -219 359 -74 95 -276 319 -299 331 -43 23
-4 19 109 -11 65 -17 151 -40 190 -51 110 -29 111 -28 54 54 -226 325 -691
687 -1142 889 -149 66 -464 170 -615 202 -220 46 -352 59 -599 59 -386 1 -637
-40 -1009 -164 -302 -101 -669 -308 -910 -516 -27 -23 -54 -39 -59 -36 -6 3
-7 1 -4 -5 8 -12 -88 -96 -101 -88 -12 7 -44 -28 -35 -37 3 -4 -3 -16 -14 -26
-15 -15 -24 -16 -39 -8 -17 9 -18 9 -5 -6 12 -15 11 -20 -4 -37 -21 -23 -34
-18 -15 5 8 10 9 15 2 13 -6 -2 -17 6 -25 17 -13 17 -17 18 -33 5 -15 -13 -17
-13 -12 0 3 8 17 15 31 15 21 -1 24 2 15 13 -8 8 -21 11 -37 7 -30 -8 -53 -13
-63 -14 -5 -1 -8 -7 -8 -14 0 -8 -16 -27 -36 -43 -19 -16 -42 -40 -49 -54 -10
-18 -14 -20 -15 -8 0 9 59 76 130 150 107 110 132 130 141 118 9 -13 10 -13 6
2 -6 16 104 123 228 223 227 182 547 353 915 488 8 3 -1 6 -20 6 -20 0 -92
-22 -165 -51z m1368 -384 c60 -10 48 -34 -18 -34 -41 0 -55 -4 -55 -14 0 -8
-3 -21 -6 -30 -4 -11 4 -15 38 -18 30 -2 43 -7 43 -18 0 -11 -10 -14 -42 -12
-24 2 -43 -1 -43 -6 0 -5 -3 -24 -6 -41 l-6 -31 56 0 c43 0 56 -3 56 -15 0
-12 -16 -15 -81 -15 l-82 0 7 97 c10 142 10 143 60 143 22 0 58 -3 79 -6z
m-413 -114 l0 -100 55 6 c46 6 55 4 55 -9 0 -16 -22 -21 -122 -30 l-37 -3 -3
111 c-2 60 -2 113 0 118 2 4 14 7 28 7 24 0 24 -1 24 -100z m-230 45 c0 -11
-12 -15 -44 -15 -28 0 -55 -8 -77 -23 -29 -19 -34 -30 -37 -66 -5 -64 17 -91
74 -91 25 0 58 7 74 15 27 14 30 14 30 0 0 -22 -76 -55 -128 -55 -35 0 -49 6
-72 28 -62 63 -43 157 40 200 53 26 140 31 140 7z m1198 -14 c41 -11 76 -22
79 -25 9 -9 -13 -30 -97 -92 -44 -33 -80 -62 -80 -66 0 -4 18 -11 40 -14 43
-7 79 -28 68 -40 -12 -12 -169 28 -176 44 -5 15 40 59 120 114 26 18 48 36 48
40 0 4 -25 12 -55 18 -36 7 -55 16 -55 26 0 18 20 18 108 -5z m-1600 -93 c-2
-6 -24 -16 -49 -22 -33 -8 -45 -16 -47 -33 -3 -18 3 -22 40 -28 93 -14 121
-41 95 -94 -21 -43 -147 -93 -147 -57 0 9 11 18 28 22 56 12 73 23 70 46 -2
18 -13 24 -62 34 -56 11 -86 32 -86 59 0 21 33 57 64 71 39 17 99 18 94 2z
m1968 -27 c53 -24 74 -55 74 -109 0 -38 -6 -50 -39 -83 -31 -31 -46 -39 -75
-39 -45 0 -95 20 -119 48 -46 52 -23 152 43 184 44 23 65 22 116 -1z m-2273
-176 c26 -77 27 -87 13 -112 -20 -40 -87 -75 -133 -71 -37 3 -39 6 -77 82
l-38 79 23 18 24 18 36 -78 c20 -43 44 -81 53 -84 27 -10 76 20 76 46 0 12
-12 55 -27 95 -22 62 -24 75 -12 83 28 17 35 8 62 -76z m2573 17 c7 -4 16 -54
20 -111 l9 -105 38 62 c44 71 52 78 72 62 13 -11 11 -18 -13 -49 -16 -20 -46
-62 -66 -93 -31 -48 -41 -56 -55 -48 -19 9 -31 72 -31 158 0 23 -3 42 -7 42
-5 0 -21 -23 -38 -51 -37 -62 -52 -76 -66 -62 -8 8 6 39 46 107 56 93 67 104
91 88z m-3486 -26 c0 -2 -8 -10 -17 -17 -16 -13 -17 -12 -4 4 13 16 21 21 21
13z m2445 -96 c249 -38 427 -95 660 -212 610 -306 1058 -835 1273 -1505 24
-74 27 -93 16 -97 -11 -4 -13 -21 -8 -73 3 -37 8 -70 9 -73 2 -3 0 -12 -4 -19
-5 -8 -11 9 -16 45 -10 85 -30 165 -68 279 -35 102 -82 215 -90 215 -3 0 9
-39 25 -86 39 -114 86 -350 99 -504 19 -213 7 -393 -40 -629 -23 -113 -57
-252 -77 -310 -41 -124 -129 -335 -156 -373 -10 -14 -18 -29 -18 -33 0 -11
-102 -176 -158 -253 -294 -411 -736 -726 -1200 -856 -286 -80 -568 -103 -862
-71 -187 21 -270 38 -443 89 -117 35 -148 51 -140 74 5 15 4 15 -8 -1 -14 -18
-49 -15 -49 4 0 5 -7 9 -14 9 -19 0 -159 70 -153 76 3 3 30 -9 61 -25 31 -17
62 -31 69 -30 9 0 9 2 0 6 -10 3 -10 8 1 19 17 17 40 18 66 4 21 -11 73 -3 65
10 -3 5 11 3 30 -3 26 -7 32 -13 23 -20 -9 -6 -8 -7 4 -4 9 3 56 -7 105 -23
334 -108 753 -120 1117 -34 461 110 834 338 1149 704 254 294 443 698 516
1105 25 143 33 267 29 450 -3 104 -1 179 3 165 7 -24 7 -23 8 7 1 17 -5 33
-11 35 -7 3 -14 22 -15 44 -4 72 -64 316 -104 420 -63 165 -200 397 -327 556
-63 79 -242 254 -345 336 -214 170 -456 297 -737 386 -477 151 -1101 110
-1564 -103 -146 -68 -359 -200 -481 -298 -119 -97 -280 -264 -370 -386 -44
-59 -81 -103 -83 -97 -2 5 -8 7 -14 4 -7 -4 -6 -9 2 -14 9 -5 2 -24 -25 -66
-129 -201 -201 -399 -294 -804 l-10 -45 5 45 c12 99 65 339 91 407 8 23 12 47
8 54 -5 7 -4 10 3 5 6 -3 13 6 17 24 4 16 11 30 17 30 6 0 8 9 5 20 -3 11 -1
18 4 14 13 -7 15 42 5 86 -2 8 -9 14 -15 13 -7 -2 -8 5 -1 25 10 25 9 26 -5 7
-27 -38 -36 -45 -45 -40 -12 7 -1 35 12 32 6 -1 13 4 16 12 3 9 0 11 -9 6 -15
-10 26 61 55 93 16 19 21 20 26 8 4 -11 8 -9 17 10 10 21 9 23 -1 15 -18 -15
-27 -2 -15 21 7 14 14 16 23 9 8 -7 12 -5 12 9 0 10 -4 16 -9 13 -5 -3 6 15
25 38 18 24 47 65 63 91 30 48 49 63 39 31 -5 -14 -4 -15 4 -4 6 8 8 19 6 25
-5 14 55 88 66 81 5 -3 12 0 16 6 4 8 3 9 -4 5 -62 -38 162 199 278 294 227
188 477 338 690 414 153 55 423 115 590 130 111 10 430 -4 565 -24z m-1892
-121 c36 -66 44 -88 35 -97 -22 -22 -37 -12 -70 48 -18 33 -37 60 -42 60 -4 0
-6 -6 -3 -13 3 -8 8 -43 12 -78 6 -53 4 -67 -9 -78 -13 -11 -25 -7 -81 28 -45
28 -65 37 -65 27 0 -8 4 -17 9 -20 19 -12 61 -95 55 -110 -3 -9 -9 -16 -13
-16 -4 0 -33 38 -65 85 -62 90 -63 100 -13 126 15 9 32 2 89 -36 64 -43 70
-45 65 -23 -3 12 -9 55 -12 93 -7 69 -6 70 22 86 15 9 31 13 34 10 4 -3 27
-45 52 -92z m-700 57 c-10 -13 -20 -22 -22 -20 -4 4 29 44 36 44 2 0 -4 -11
-14 -24z m-218 -35 c-3 -6 -11 -11 -16 -11 -5 0 -4 6 3 14 14 16 24 13 13 -3z
m4237 -68 c55 -50 46 -69 -11 -24 -21 17 -42 31 -45 31 -3 0 -13 -11 -22 -25
-17 -25 -16 -27 15 -59 42 -43 24 -57 -20 -16 l-33 30 -23 -28 c-12 -15 -22
-29 -23 -33 0 -3 16 -20 35 -39 19 -19 35 -38 35 -42 0 -17 -20 -6 -69 38 -34
31 -50 52 -46 62 3 8 34 50 68 92 69 86 59 85 139 13z m-3797 -53 c-20 -21
-32 -27 -41 -19 -12 10 -63 3 -65 -10 0 -3 -2 -22 -4 -41 l-3 -35 34 38 c19
20 34 32 34 26 0 -5 -43 -54 -96 -107 -53 -53 -114 -118 -136 -145 -22 -26
-45 -44 -50 -40 -7 3 -8 1 -4 -6 4 -6 1 -18 -7 -26 -8 -7 -49 -65 -91 -128
-92 -139 -207 -361 -266 -514 -24 -62 -45 -111 -47 -109 -2 2 10 43 27 92 44
125 155 349 242 484 66 103 108 175 108 187 0 2 -5 1 -12 -3 -7 -4 -8 -3 -4 4
4 6 13 9 20 6 9 -3 17 3 21 15 3 12 11 18 17 15 6 -4 9 -3 5 2 -3 5 1 18 9 29
9 12 14 14 14 5 0 -7 3 -11 6 -7 3 3 3 11 -1 17 -5 8 -15 4 -33 -12 -21 -19
-20 -15 8 25 19 27 36 44 38 38 2 -6 8 -9 13 -5 14 8 11 -3 -7 -20 -8 -9 -12
-16 -7 -16 4 0 32 25 62 55 35 35 48 55 38 55 -11 0 -14 5 -10 16 5 15 -1 16
-50 12 -32 -3 -57 -1 -57 4 0 8 16 11 55 11 18 -1 18 0 1 12 -16 12 -14 14 14
20 25 6 29 9 19 21 -6 8 -19 14 -28 15 -14 0 226 65 253 68 6 1 -3 -12 -19
-29z m-75 -40 c0 -5 -4 -10 -10 -10 -5 0 -10 5 -10 10 0 6 5 10 10 10 6 0 10
-4 10 -10z m-543 -57 c-13 -20 -30 -39 -38 -41 -9 -2 -10 0 -4 5 6 4 21 23 34
41 31 44 37 41 8 -5z m340 -46 c23 -1 1 -23 -25 -24 -22 -1 -23 0 -7 6 19 8
19 8 0 20 -20 12 -20 12 0 6 11 -4 25 -8 32 -8z m33 -22 c-7 -9 -15 -13 -18
-10 -3 2 1 11 8 20 7 9 15 13 18 10 3 -2 -1 -11 -8 -20z m2375 4 c58 -16 123
-48 129 -64 4 -11 -5 -10 -37 4 -59 26 -112 43 -182 57 l-60 12 55 1 c30 0 73
-4 95 -10z m-2852 -83 c-21 -31 -42 -56 -46 -56 -5 0 2 13 15 29 12 16 31 43
41 61 10 18 20 30 23 27 3 -2 -12 -30 -33 -61z m2746 16 c19 -10 42 -30 50
-43 l16 -24 -31 26 c-37 30 -112 54 -149 47 -14 -3 -25 -1 -25 3 0 17 104 9
139 -9z m-49 -67 c14 -7 36 -26 50 -41 22 -24 20 -24 -20 7 -38 29 -52 34
-100 34 -42 0 -63 -6 -89 -24 -21 -15 -32 -19 -29 -10 2 8 20 24 39 37 28 20
42 22 79 17 25 -4 56 -13 70 -20z m296 -46 c3 -6 14 -9 24 -6 33 8 43 -40 35
-159 -7 -104 -7 -107 13 -102 52 14 34 -141 -19 -157 -16 -5 -19 -16 -19 -74
l0 -67 -65 -62 c-59 -56 -69 -62 -108 -62 -39 1 -113 29 -77 30 9 0 21 5 28
12 10 10 7 15 -10 25 -23 12 -22 12 7 13 29 0 55 15 55 32 0 4 -6 5 -13 2 -7
-2 -24 0 -38 5 l-24 10 25 2 c14 1 31 1 38 0 29 -4 -8 38 -40 44 -30 7 -31 8
-13 21 17 12 17 14 2 14 -19 0 -19 -4 -17 113 l1 87 -45 0 c-44 0 -45 1 -52
35 -3 19 -12 35 -18 35 -13 0 -14 22 -3 50 3 8 10 31 15 50 8 34 9 35 69 40
33 3 67 11 75 18 14 11 142 61 160 62 4 0 10 -5 14 -11z m-502 -35 c3 -8 2
-12 -4 -9 -6 3 -10 10 -10 16 0 14 7 11 14 -7z m36 -159 c0 -25 -4 -45 -10
-45 -5 0 -10 20 -10 45 0 25 5 45 10 45 6 0 10 -20 10 -45z m-2334 -53 c-17
-16 -18 -16 -5 5 7 12 15 20 18 17 3 -2 -3 -12 -13 -22z m-18 -29 c-31 -65
-73 -141 -76 -138 -4 4 68 145 75 145 2 0 3 -3 1 -7z m1242 -8 c7 -9 25 -51
40 -93 27 -75 28 -77 58 -74 24 3 32 -1 37 -18 7 -23 -19 -62 -39 -58 -17 3
-76 -36 -76 -49 0 -7 -5 -13 -11 -13 -6 0 -9 6 -6 14 3 8 2 16 -2 18 -5 2 -23
46 -39 98 -17 52 -31 85 -32 72 0 -12 11 -55 25 -94 14 -39 25 -75 25 -79 0
-9 -71 -31 -78 -24 -2 2 -8 23 -12 47 -10 49 -29 103 -34 97 -3 -2 2 -29 10
-59 19 -73 18 -79 -12 -90 -40 -16 -64 3 -64 50 0 41 -7 49 -28 28 -7 -7 -12
-9 -12 -5 0 4 -9 3 -20 -3 -11 -6 -20 -17 -20 -25 0 -8 -11 -22 -25 -31 -23
-15 -27 -15 -60 6 -23 14 -34 28 -31 37 3 8 2 11 -3 8 -16 -10 -22 14 -10 37
7 13 24 33 38 46 26 23 121 72 140 72 5 0 12 4 15 9 6 8 -16 5 -88 -14 -46
-12 -23 11 44 45 54 27 170 57 231 59 15 1 32 -6 39 -14z m1104 -1 c4 -9 4
-19 1 -22 -2 -3 -7 3 -11 12 -3 9 -11 16 -16 16 -14 0 -2 -88 13 -107 15 -18
3 -29 -15 -14 -16 13 -30 90 -20 114 8 22 40 22 48 1z m1731 -6 c28 -6 64 -18
82 -27 46 -23 193 -152 193 -168 0 -8 -13 -28 -29 -44 -26 -26 -36 -29 -89
-29 -39 0 -62 4 -65 13 -3 8 -13 3 -30 -15 -17 -19 -36 -28 -57 -28 -37 0 -38
11 -4 74 14 26 23 50 20 53 -2 3 -19 -22 -35 -56 -26 -50 -36 -61 -56 -61 -22
0 -25 5 -25 33 0 17 7 54 15 81 17 57 18 66 6 66 -4 0 -16 -35 -25 -77 -23
-103 -23 -103 -38 -103 -47 1 -52 57 -13 169 27 81 29 91 17 91 -15 0 -31 -47
-49 -138 -9 -48 -17 -89 -19 -90 -1 -2 -12 -1 -23 3 -15 5 -21 15 -22 38 l-1
32 -10 -27 c-5 -16 -13 -28 -18 -28 -18 0 -32 31 -26 56 6 22 11 25 36 22 28
-4 31 -1 50 49 11 30 29 72 41 94 l20 41 52 -7 c29 -3 75 -11 102 -17z m-4162
-153 c-3 -9 -8 -14 -10 -11 -3 3 -2 9 2 15 9 16 15 13 8 -4z m2501 -138 c15
-19 26 -38 26 -43 0 -5 -10 6 -21 23 -12 18 -25 31 -29 28 -4 -3 -10 2 -14 10
-10 27 12 16 38 -18z m1511 -17 c8 -13 -5 -13 -25 0 -13 8 -13 10 2 10 9 0 20
-4 23 -10z m-1075 -35 c0 -47 19 -70 81 -94 75 -29 172 -93 200 -132 12 -17
19 -32 17 -35 -3 -2 -27 -15 -54 -28 l-49 -24 -40 20 c-22 11 -55 34 -72 51
-18 17 -33 27 -33 23 0 -14 69 -103 92 -119 21 -14 22 -16 6 -32 -14 -15 -24
-16 -79 -6 -35 6 -70 17 -78 25 -11 12 -15 50 -16 188 -1 95 1 179 3 185 6 20
22 4 22 -22z m1625 -200 c49 -158 56 -195 56 -319 0 -87 -6 -142 -31 -256 -19
-91 -30 -166 -28 -200 l3 -55 -80 -23 c-44 -13 -116 -25 -160 -29 -70 -4 -89
-2 -146 20 -63 24 -68 24 -120 10 -93 -25 -168 -7 -251 60 -45 36 -48 49 -10
42 21 -4 18 -1 -14 14 -22 11 -47 28 -56 38 -16 17 -12 18 80 18 87 0 105 3
175 33 63 25 92 32 145 32 59 -1 71 -4 101 -30 19 -16 36 -28 38 -26 2 1 -3
21 -11 43 -8 22 -17 82 -21 134 -7 90 -6 95 19 132 14 21 31 59 37 85 20 80
29 71 30 -29 1 -122 17 -176 18 -64 1 44 6 117 11 162 8 65 7 104 -5 184 -20
135 -19 138 15 44 16 -44 29 -74 29 -67 2 26 -40 177 -55 200 -18 27 -11 41
10 23 42 -35 108 -259 126 -426 9 -79 9 -79 5 30 -3 119 -23 210 -74 333 -20
49 -25 72 -16 72 7 0 19 10 27 22 14 20 16 16 47 -73 48 -137 66 -162 36 -49
-8 30 -15 78 -14 105 l0 50 25 -65 c13 -36 40 -114 59 -175z m-4654 184 c-5
-13 -10 -19 -10 -12 -1 15 10 45 15 40 3 -2 0 -15 -5 -28z m1037 7 c1 -2 -2
-15 -8 -30 -23 -63 -87 -382 -78 -392 3 -2 19 62 37 143 34 150 62 233 87 254
21 17 25 7 13 -32 -6 -19 -10 -91 -9 -162 0 -104 4 -136 21 -175 18 -44 20
-33 3 33 l-5 20 12 -20 c7 -11 31 -41 54 -66 24 -25 50 -60 59 -78 24 -45 31
-121 18 -188 -6 -32 -14 -78 -17 -102 -6 -43 -5 -44 13 -28 27 24 43 22 146
-22 50 -21 108 -41 129 -45 21 -4 35 -11 32 -16 -11 -18 -119 -60 -174 -69
-73 -11 -277 9 -274 26 2 7 -10 26 -27 43 -40 41 -83 117 -76 135 3 8 0 14 -6
12 -15 -3 -99 115 -93 131 3 7 1 11 -4 8 -14 -9 -21 33 -21 139 0 105 15 175
79 374 17 52 31 101 31 109 0 10 7 12 27 7 16 -4 29 -8 31 -9z m1937 -311
c-16 -55 -26 -68 -62 -79 -21 -7 -21 -5 -12 29 6 20 23 66 40 103 l29 67 -35
-40 c-20 -22 -48 -59 -63 -82 -15 -24 -30 -43 -34 -43 -4 0 -9 19 -12 43 -14
115 -16 107 31 171 25 34 64 83 87 109 l41 48 3 -137 c2 -100 -2 -151 -13
-189z m-2994 248 c-12 -20 -14 -14 -5 12 4 9 9 14 11 11 3 -2 0 -13 -6 -23z
m2558 -7 c-2 -1 -38 -21 -79 -42 -41 -21 -103 -60 -136 -85 -80 -61 -94 -68
-64 -35 53 59 262 187 279 171 2 -3 2 -7 0 -9z m-1915 -74 c-8 -6 -66 -117
-68 -132 -1 -3 -15 -41 -33 -85 -17 -44 -34 -90 -38 -103 -4 -13 -9 -21 -12
-19 -7 8 55 183 99 279 29 63 44 86 52 78 7 -7 8 -13 0 -18z m230 -78 c-15
-55 -35 -144 -45 -199 l-19 -100 6 75 c3 41 10 98 15 125 12 58 61 207 66 201
2 -2 -8 -48 -23 -102z m-923 19 c-12 -20 -14 -14 -5 12 4 9 9 14 11 11 3 -2 0
-13 -6 -23z m2854 -6 c17 -41 24 -126 10 -126 -5 0 -18 31 -27 70 -10 38 -20
74 -23 79 -4 6 1 10 10 10 9 0 22 -15 30 -33z m-95 -7 c0 -6 11 -27 25 -48 28
-42 65 -144 65 -179 0 -14 -6 -23 -16 -23 -10 0 -14 -6 -10 -15 7 -19 2 -19
-32 2 -25 16 -25 15 6 -18 40 -44 52 -84 52 -174 -1 -136 -24 -183 -111 -228
-52 -28 -58 -29 -169 -24 -134 5 -159 14 -240 87 -46 41 -53 51 -40 61 13 9
13 10 -2 6 -15 -5 -65 44 -91 89 -4 7 -21 28 -38 46 -17 18 -39 45 -50 60
l-20 27 28 7 c29 7 75 34 58 34 -10 0 -79 -15 -120 -26 -19 -5 -18 -4 2 14 14
12 58 27 117 38 52 9 93 21 90 26 -3 4 -59 8 -125 8 -73 0 -119 4 -119 10 0 6
-8 10 -17 10 -15 0 -16 -2 -3 -10 11 -7 6 -10 -20 -9 -19 0 -28 3 -20 6 8 4
20 12 25 20 25 32 228 44 345 19 45 -10 80 -11 110 -5 58 11 167 11 255 -1 38
-5 71 -8 72 -6 1 1 -9 37 -23 81 -21 66 -23 83 -13 102 13 24 29 31 29 13z
m-2773 -32 c-3 -8 -6 -5 -6 6 -1 11 2 17 5 13 3 -3 4 -12 1 -19z m2279 -33
c51 -26 84 -50 94 -67 8 -15 12 -29 9 -32 -2 -3 -24 0 -48 5 -55 12 -240 16
-354 7 -49 -4 -85 -3 -82 2 3 5 1 11 -4 15 -6 3 -31 -14 -56 -38 -25 -24 -45
-38 -45 -32 0 10 62 68 118 112 35 28 2 20 -48 -12 -91 -57 -97 -59 -51 -19
53 47 61 52 131 81 48 21 68 23 156 21 95 -3 106 -6 180 -43z m1461 25 c59
-20 168 -87 199 -121 13 -15 15 -22 6 -31 -9 -9 -25 -8 -65 5 -70 22 -82 21
-31 -2 23 -10 44 -23 48 -29 3 -5 -16 -26 -42 -47 -34 -26 -54 -35 -72 -32
-14 3 -92 19 -175 36 -205 43 -216 35 -17 -12 89 -21 164 -42 167 -46 4 -8
-28 -43 -90 -97 -17 -15 -22 -23 -12 -20 25 8 21 -3 -26 -64 -55 -71 -165
-163 -233 -195 -45 -21 -67 -25 -153 -25 -152 0 -195 12 -257 75 -44 44 -54
60 -64 111 -17 80 -8 149 29 222 23 46 41 67 69 81 48 26 30 26 -43 1 -32 -11
-60 -19 -62 -17 -7 8 44 45 76 56 43 14 104 14 207 0 71 -10 84 -9 114 6 23
12 68 19 154 23 139 7 118 19 -39 21 -97 2 -99 2 -75 19 13 9 39 30 57 46 18
15 52 34 76 41 65 21 188 18 254 -5z m-3750 -32 c-3 -8 -6 -5 -6 6 -1 11 2 17
5 13 3 -3 4 -12 1 -19z m2712 0 c5 -13 16 -40 25 -60 16 -38 16 -38 -6 -38
-41 0 -48 12 -41 68 3 29 8 52 10 52 2 0 7 -10 12 -22z m-973 -159 c79 -33
103 -49 191 -128 l60 -55 -26 -21 c-14 -12 -55 -39 -91 -60 -61 -37 -71 -39
-158 -43 -51 -2 -100 -1 -110 4 -9 4 -23 8 -30 10 -38 7 -43 13 -32 35 11 19
10 20 -12 15 l-23 -7 24 18 c12 10 46 28 75 40 34 15 43 22 29 23 -12 0 -61
-20 -109 -45 -47 -25 -92 -45 -100 -45 -27 0 -63 31 -69 60 -7 31 13 88 38
109 9 7 14 17 11 22 -10 17 87 87 140 100 47 12 113 1 192 -32z m2685 -1 c-20
-47 -61 -117 -61 -105 0 11 69 147 75 147 2 0 -4 -19 -14 -42z m-206 -1 c26
-15 57 -48 88 -94 54 -80 56 -104 14 -156 -19 -24 -37 -30 -131 -47 -61 -11
-127 -20 -147 -20 -44 0 -192 45 -211 63 -7 7 -32 24 -56 37 -23 13 -41 27
-40 31 6 14 172 161 199 175 43 22 96 32 174 33 55 0 78 -4 110 -22z m-3698
-259 c-3 -7 -5 -2 -5 12 0 14 2 19 5 13 2 -7 2 -19 0 -25z m451 -226 c5 -64 9
-66 134 -88 88 -15 148 -15 280 1 36 4 31 1 -32 -21 -91 -32 -201 -41 -296
-25 -64 11 -138 40 -104 41 11 0 11 3 2 12 -10 10 -15 10 -23 -2 -8 -11 -9 -9
-4 10 19 67 16 125 -10 215 -3 11 7 -5 22 -35 15 -30 29 -79 31 -108z m-471
106 c-3 -8 -6 -5 -6 6 -1 11 2 17 5 13 3 -3 4 -12 1 -19z m130 -55 c-3 -10 -5
-4 -5 12 0 17 2 24 5 18 2 -7 2 -21 0 -30z m1238 8 c-4 -12 -26 -28 -58 -41
-47 -19 -41 -20 21 -4 l24 7 -20 -39 c-41 -77 -128 -114 -276 -115 -77 -1 -94
-3 -71 -10 43 -13 193 0 243 22 62 27 51 7 -17 -30 -70 -37 -143 -41 -269 -15
-92 19 -113 33 -45 29 37 -2 50 1 50 11 0 9 -7 12 -19 8 -10 -3 -18 -1 -18 4
0 21 262 147 359 173 53 14 98 24 99 23 2 -1 1 -12 -3 -23z m1015 -76 c0 -15
5 -17 199 -65 87 -21 148 -30 206 -30 74 0 84 -2 105 -25 13 -14 22 -26 19
-28 -16 -11 -82 -37 -93 -37 -13 0 -32 44 -27 63 1 5 -2 7 -6 5 -49 -24 -63
-33 -63 -45 0 -15 16 -18 25 -3 7 12 35 2 35 -13 0 -6 -10 -22 -22 -35 l-23
-25 23 12 c12 7 27 9 32 6 18 -11 11 -43 -12 -59 -26 -18 -17 -21 14 -5 18 9
24 8 35 -7 7 -10 13 -13 13 -7 0 15 77 66 89 58 6 -3 11 -17 11 -31 0 -28 -54
-67 -83 -60 -9 2 -15 0 -12 -5 3 -4 -2 -21 -12 -36 -20 -31 -16 -29 58 24 26
18 49 33 53 33 10 0 -3 -149 -19 -209 -19 -76 -21 -122 -11 -218 12 -117 6
-133 -88 -232 -44 -47 -73 -80 -63 -72 25 20 21 4 -8 -31 -14 -16 -25 -24 -25
-16 -1 19 -28 -18 -51 -69 -17 -37 -25 -42 -72 -55 -54 -14 -339 -19 -352 -6
-15 15 -121 376 -112 384 2 3 25 -1 51 -8 37 -10 51 -10 66 0 25 15 82 16 98
0 7 -7 12 -22 12 -34 0 -13 4 -25 9 -28 12 -7 61 32 61 48 0 9 21 15 68 18 74
6 132 30 139 59 3 10 9 19 14 19 19 0 8 -91 -27 -224 -34 -135 -40 -180 -14
-114 8 18 33 79 57 135 23 56 48 134 54 173 11 65 16 74 51 103 36 28 78 84
78 102 0 4 -25 -16 -56 -44 -30 -28 -60 -51 -66 -51 -13 0 -5 112 13 192 16
71 9 86 -78 174 -47 47 -58 64 -46 68 12 5 13 9 3 21 -7 8 -18 15 -24 15 -6 0
-4 -5 4 -10 11 -7 12 -12 4 -20 -8 -8 -22 -7 -50 6 l-39 17 30 7 c28 7 27 8
-10 7 -22 0 -51 3 -63 7 -25 8 -52 59 -52 97 0 24 -8 23 135 4 22 -3 6 4 -35
15 -97 25 -197 25 -338 -1 -142 -26 -216 -22 -97 5 110 24 237 66 255 82 19
18 30 18 30 -1z m-2263 -32 c-3 -10 -5 -4 -5 12 0 17 2 24 5 18 2 -7 2 -21 0
-30z m3048 23 c30 -13 35 -20 35 -48 0 -41 -46 -139 -92 -197 -35 -43 -113
-111 -129 -111 -20 0 15 66 61 117 63 69 100 140 99 190 -1 36 -2 35 -22 -27
-17 -52 -33 -77 -78 -122 -32 -32 -62 -58 -68 -58 -5 0 -13 16 -17 37 -6 33
-4 39 27 66 19 16 26 26 16 23 -60 -19 -63 -19 -74 19 -13 40 -17 35 87 94 61
34 103 38 155 17z m-3166 -201 c1 -65 27 -246 52 -360 31 -140 125 -398 200
-547 16 -32 27 -58 24 -58 -17 0 -153 311 -201 460 -51 160 -95 442 -92 600 1
73 1 74 8 25 5 -27 9 -81 9 -120z m2379 85 c4 -69 -8 -78 -117 -88 -84 -7 -96
-6 -117 11 -13 10 -29 28 -35 39 -13 25 -5 31 66 52 89 27 129 34 165 33 34
-2 35 -3 38 -47z m1196 0 c39 1 101 7 138 14 57 11 72 10 100 -2 32 -13 32
-14 11 -23 -13 -4 -61 -16 -109 -24 -99 -19 -180 -11 -257 25 -73 34 -81 54
-12 30 38 -13 84 -20 129 -20z m-2052 -37 c17 -26 65 -82 106 -125 41 -43 70
-78 65 -78 -17 0 -146 141 -181 198 -40 65 -34 68 10 5z m288 16 c0 -24 -23
-21 -28 4 -2 10 3 17 12 17 10 0 16 -9 16 -21z m135 4 c28 -13 34 -21 29 -37
-10 -32 -12 -32 -49 4 -53 51 -45 64 20 33z m-2518 -55 c-3 -7 -5 -2 -5 12 0
14 2 19 5 13 2 -7 2 -19 0 -25z m3500 16 c7 -19 -29 -58 -68 -75 -34 -13 -34
-13 -43 24 -6 25 -3 29 36 47 53 23 67 24 75 4z m-2791 -214 c59 -447 271
-886 586 -1216 148 -154 337 -304 508 -401 80 -46 89 -59 12 -18 -121 64 -313
194 -357 241 -5 5 -50 46 -99 90 -202 180 -394 455 -509 729 -89 212 -170 559
-165 711 1 45 2 49 5 19 2 -22 10 -92 19 -155z m1784 168 c32 -23 40 -48 15
-48 -18 0 -65 43 -65 60 0 16 18 12 50 -12z m-126 -20 c-4 -34 -4 -34 -14 -16
-11 17 -3 51 9 43 4 -2 7 -14 5 -27z m792 -44 c62 -29 93 -61 106 -111 19 -68
3 -171 -25 -170 -47 1 -49 -2 -23 -36 34 -44 33 -75 -4 -125 -38 -53 -63 -65
-119 -59 -52 6 -78 30 -85 80 -2 18 -8 57 -13 88 l-9 56 75 0 c83 -1 107 8
159 56 42 40 41 55 -1 23 -49 -37 -152 -33 -193 8 -36 36 -48 181 -18 211 21
21 79 13 150 -21z m-220 0 c10 -39 -5 -207 -19 -216 -20 -13 -96 -9 -126 7
-37 19 -101 93 -101 117 0 57 94 116 187 117 49 1 53 -1 59 -25z m2811 -21
c-3 -10 -5 -2 -5 17 0 19 2 27 5 18 2 -10 2 -26 0 -35z m-3377 -19 c0 -8 -4
-12 -10 -9 -5 3 -10 10 -10 16 0 5 5 9 10 9 6 0 10 -7 10 -16z m3380 -76 c0
-5 -4 -8 -10 -8 -5 0 -10 10 -10 23 0 18 2 19 10 7 5 -8 10 -18 10 -22z m4
-72 c-3 -14 -10 -26 -14 -26 -9 0 -20 26 -19 43 0 7 4 3 8 -8 8 -19 8 -19 15
3 10 31 19 21 10 -12z m-2821 -189 c-3 -129 -8 -137 -81 -137 -62 0 -93 15
-134 65 -31 38 -33 78 -8 133 l20 43 103 -3 102 -3 -2 -98z m2234 81 c-3 -8
-6 -5 -6 6 -1 11 2 17 5 13 3 -3 4 -12 1 -19z m562 -30 c0 -27 -2 -29 -8 -13
-5 11 -6 26 -4 33 8 21 13 13 12 -20z m-3131 -103 c-3 -3 -20 13 -38 37 l-33
43 38 -37 c22 -21 36 -40 33 -43z m3119 43 c-3 -8 -6 -5 -6 6 -1 11 2 17 5 13
3 -3 4 -12 1 -19z m-577 -45 c-11 -17 -11 -17 -6 0 3 10 6 24 7 30 0 9 2 9 5
0 3 -7 0 -20 -6 -30z m-2793 -30 c-3 -10 -5 -2 -5 17 0 19 2 27 5 18 2 -10 2
-26 0 -35z m1952 -10 c-84 -149 -198 -281 -325 -376 -81 -61 -164 -113 -164
-104 0 3 46 42 103 88 147 120 294 271 357 367 30 45 56 82 58 82 2 0 -11 -26
-29 -57z m1380 -58 c-12 -41 -24 -73 -27 -71 -6 6 19 108 30 121 4 5 8 18 9
30 0 11 3 14 6 8 2 -7 -5 -47 -18 -88z m-557 38 c-3 -16 -7 -22 -10 -15 -4 13
4 42 11 42 2 0 2 -12 -1 -27z m-2558 -2 c10 -10 43 -84 75 -162 32 -79 67
-164 79 -189 37 -84 38 -83 -10 -75 -24 4 -48 10 -54 14 -17 9 -103 175 -125
240 -22 63 -24 111 -7 158 14 38 19 40 42 14z m-855 -219 c84 -82 249 -222
307 -260 10 -7 3 -5 -16 4 -127 60 -351 262 -419 376 l-32 53 32 -40 c18 -22
75 -82 128 -133z m3341 -13 c-27 -84 -48 -154 -46 -156 2 -2 20 43 41 99 44
119 62 158 73 157 21 -4 31 3 34 23 3 22 3 22 20 -3 16 -25 14 -30 -41 -166
-161 -391 -400 -700 -699 -902 -133 -89 -284 -183 -288 -178 -2 2 19 19 47 37
300 194 678 685 840 1090 23 58 46 121 52 140 5 19 12 30 14 24 2 -7 -19 -80
-47 -165z m-4272 -144 c245 -415 455 -679 686 -863 32 -26 73 -60 90 -75 l31
-29 -30 19 c-141 90 -234 157 -229 164 3 5 -1 7 -8 4 -7 -3 -65 37 -128 88
-222 179 -432 461 -560 754 -45 101 -49 138 -6 53 14 -28 32 -60 40 -71 12
-18 14 -18 27 -3 11 14 11 18 -6 30 -10 8 -16 17 -12 20 4 4 13 1 22 -6 12
-10 11 -3 -5 34 -26 62 -25 82 2 31 11 -22 50 -89 86 -150z m2677 98 c8 -26
13 -48 12 -49 -28 -23 -185 -79 -194 -70 -4 3 1 6 11 6 15 0 37 38 85 144 2 5
-2 5 -9 1 -9 -5 -11 -4 -6 4 4 6 11 9 14 7 4 -2 19 4 32 14 29 22 32 18 55
-57z m-895 -68 c17 -27 30 -53 30 -57 0 -4 -24 2 -52 13 -55 21 -82 39 -60 39
8 0 12 18 12 53 l0 52 21 -25 c11 -14 33 -47 49 -75z m-1686 -81 c3 -8 2 -12
-4 -9 -6 3 -10 10 -10 16 0 14 7 11 14 -7z m-540 -165 c10 8 12 5 10 -12 -1
-12 -3 -24 -3 -27 -3 -9 -31 34 -30 44 0 6 3 5 6 -2 3 -9 9 -10 17 -3z m44
-44 c-3 -3 -9 2 -12 12 -6 14 -5 15 5 6 7 -7 10 -15 7 -18z m56 -117 c-3 -4 1
-6 8 -4 8 3 48 -43 98 -112 113 -154 236 -299 389 -456 69 -71 110 -119 91
-106 -47 32 -291 276 -374 375 -37 44 -84 105 -104 135 -47 71 -101 130 -118
130 -10 0 -13 10 -9 38 3 22 1 32 -4 24 -6 -10 -14 -5 -30 21 -24 40 -28 60
-5 31 14 -18 15 -18 9 6 -4 15 5 6 24 -25 16 -27 27 -53 25 -57z m1112 -421
c13 -10 25 -18 26 -17 8 3 37 -13 34 -19 -3 -4 4 -12 14 -19 13 -7 21 -8 25
-2 4 6 3 10 -2 9 -17 -3 -24 1 -18 11 5 8 11 7 21 -1 11 -9 11 -15 3 -25 -8
-10 -8 -14 -1 -14 14 0 103 -62 98 -67 -13 -13 -238 152 -331 241 -43 42 -40
40 29 -15 43 -35 89 -72 102 -82z m359 -117 c3 -6 -1 -7 -9 -4 -18 7 -21 14
-7 14 6 0 13 -4 16 -10z m45 -20 c8 -5 11 -10 5 -10 -5 0 -17 5 -25 10 -8 5
-10 10 -5 10 6 0 17 -5 25 -10z m45 -28 c-3 -3 -11 0 -18 7 -9 10 -8 11 6 5
10 -3 15 -9 12 -12z m-95 -2 c0 -5 -2 -10 -4 -10 -3 0 -8 5 -11 10 -3 6 -1 10
4 10 6 0 11 -4 11 -10z m-85 -18 c-3 -3 -11 0 -18 7 -9 10 -8 11 6 5 10 -3 15
-9 12 -12z m210 8 c3 -5 1 -10 -4 -10 -6 0 -11 5 -11 10 0 6 2 10 4 10 3 0 8
-4 11 -10z m47 -17 c-6 -2 -10 -9 -6 -14 3 -5 0 -9 -5 -9 -12 0 -14 13 -4 23
3 4 11 7 17 6 6 0 5 -3 -2 -6z m-942 -140 c0 -7 -39 17 -46 28 -3 6 5 3 20 -6
14 -10 26 -19 26 -22z m3645 9 c-3 -3 -11 0 -18 7 -9 10 -8 11 6 5 10 -3 15
-9 12 -12z m-3376 -191 c11 -7 9 -12 -10 -22 -21 -11 -23 -11 -11 3 10 13 10
17 0 21 -7 3 -8 6 -3 6 6 0 16 -3 24 -8z m1219 -237 c12 -4 22 -13 22 -21 0
-13 -9 -14 -47 -9 -64 8 -94 -9 -111 -59 -10 -31 -11 -49 -2 -77 12 -42 34
-58 79 -58 28 0 30 3 33 43 2 34 7 42 23 42 17 0 20 -8 23 -48 3 -43 1 -48
-23 -57 -65 -25 -154 0 -180 51 -32 62 -11 154 43 183 28 16 100 20 140 10z
m259 -51 l31 -56 36 56 c20 31 43 57 51 57 23 0 19 -13 -24 -82 -28 -45 -40
-76 -42 -108 -4 -60 -8 -70 -30 -70 -16 0 -19 8 -19 51 0 41 -7 63 -34 108
-61 102 -61 101 -29 101 24 0 33 -9 60 -57z m400 -33 c15 -49 30 -90 33 -90 3
0 19 39 35 88 29 83 31 87 60 87 l30 0 3 -105 c3 -124 -1 -150 -28 -150 -17 0
-20 9 -22 93 l-3 92 -30 -82 c-25 -69 -33 -83 -51 -83 -18 0 -27 14 -50 81
l-29 81 -5 -89 c-4 -69 -8 -88 -20 -88 -12 0 -15 22 -18 128 l-3 127 35 0 35
0 28 -90z m993 -185 c0 -2 -13 -11 -30 -20 -38 -19 -40 -11 -2 9 31 17 32 18
32 11z"/>
<path d="M4245 5716 c-48 -48 -42 -126 12 -147 55 -21 113 31 113 101 0 65
-77 94 -125 46z"/>
<path d="M1315 4430 c-3 -5 -1 -10 4 -10 6 0 11 5 11 10 0 6 -2 10 -4 10 -3 0
-8 -4 -11 -10z"/>
<path d="M1335 4330 c3 -5 8 -10 11 -10 2 0 4 5 4 10 0 6 -5 10 -11 10 -5 0
-7 -4 -4 -10z"/>
<path d="M1310 4296 c-15 -39 -12 -46 6 -13 9 16 13 31 10 34 -3 3 -10 -6 -16
-21z"/>
<path d="M1190 4261 c0 -6 4 -13 10 -16 6 -3 7 1 4 9 -7 18 -14 21 -14 7z"/>
<path d="M1270 4239 c0 -15 18 -19 23 -6 3 8 -1 14 -9 14 -8 0 -14 -4 -14 -8z"/>
<path d="M1247 4192 c-10 -10 -17 -24 -17 -31 0 -7 -5 -9 -12 -5 -7 4 -8 3 -4
-4 4 -6 13 -9 21 -6 8 4 13 10 10 14 -3 5 5 18 17 29 12 12 17 21 11 21 -5 0
-17 -8 -26 -18z"/>
<path d="M5430 3450 c0 -5 5 -10 11 -10 5 0 7 5 4 10 -3 6 -8 10 -11 10 -2 0
-4 -4 -4 -10z"/>
<path d="M2329 1148 c-7 -24 -5 -38 7 -38 8 0 14 9 14 20 0 11 -4 20 -10 20
-5 0 -10 -1 -11 -2z"/>
<path d="M1206 5253 c-6 -14 -5 -15 5 -6 7 7 10 15 7 18 -3 3 -9 -2 -12 -12z"/>
<path d="M1055 5220 c-11 -5 -14 -9 -7 -9 7 -1 10 -6 6 -13 -5 -8 -2 -9 10 -5
14 6 15 3 5 -14 -14 -27 -4 -36 16 -15 9 9 21 16 26 16 20 0 8 30 -13 31 -22
1 -22 1 2 9 l25 8 -25 0 c-14 0 -34 -3 -45 -8z"/>
<path d="M1086 5145 c-9 -14 -13 -25 -9 -25 10 0 36 40 30 46 -2 3 -12 -7 -21
-21z"/>
<path d="M3357 4643 c-25 -4 -28 -8 -25 -36 3 -27 7 -32 27 -29 32 3 141 52
141 63 0 9 -89 10 -143 2z"/>
<path d="M1566 4419 c-14 -17 -23 -36 -19 -42 4 -7 8 -6 11 3 6 20 35 56 45
57 22 4 29 12 10 12 -12 1 -32 -12 -47 -30z"/>
<path d="M2025 4440 c-3 -5 1 -10 9 -10 9 0 16 5 16 10 0 6 -4 10 -9 10 -6 0
-13 -4 -16 -10z"/>
<path d="M2001 4424 c0 -11 3 -14 6 -6 3 7 2 16 -1 19 -3 4 -6 -2 -5 -13z"/>
<path d="M5100 3436 c-31 -98 -53 -121 -134 -135 -131 -23 -282 -7 -363 39
-29 17 -56 30 -60 30 -12 0 59 -58 106 -87 43 -26 49 -27 205 -27 182 -1 221
8 229 52 3 15 15 63 26 106 28 105 21 121 -9 22z"/>
<path d="M1470 3788 c0 -9 5 -20 10 -23 13 -8 13 5 0 25 -8 13 -10 13 -10 -2z"/>
<path d="M1651 3764 c0 -11 3 -14 6 -6 3 7 2 16 -1 19 -3 4 -6 -2 -5 -13z"/>
<path d="M1702 3534 c10 -10 20 -15 24 -12 3 4 -5 12 -18 18 -22 12 -22 12 -6
-6z"/>
<path d="M2557 3719 c7 -7 15 -10 18 -7 3 3 -2 9 -12 12 -14 6 -15 5 -6 -5z"/>
<path d="M2750 3486 c0 -2 8 -10 18 -17 15 -13 16 -12 3 4 -13 16 -21 21 -21
13z"/>
<path d="M2836 3415 c-18 -13 -17 -14 8 -21 31 -7 60 2 51 17 -4 6 -14 8 -22
5 -8 -3 -11 -1 -8 4 9 14 -7 12 -29 -5z"/>
<path d="M3498 3853 c6 -2 18 -2 25 0 6 3 1 5 -13 5 -14 0 -19 -2 -12 -5z"/>
<path d="M3675 3360 c-3 -5 1 -10 10 -10 9 0 13 5 10 10 -3 6 -8 10 -10 10 -2
0 -7 -4 -10 -10z"/>
<path d="M3718 3353 c6 -2 18 -2 25 0 6 3 1 5 -13 5 -14 0 -19 -2 -12 -5z"/>
<path d="M1984 3840 c-45 -9 -138 -53 -149 -70 -10 -16 2 -12 43 13 50 32 97
47 146 47 30 0 37 3 26 10 -8 5 -17 9 -20 9 -3 -1 -24 -5 -46 -9z"/>
<path d="M1820 3714 c0 -9 -5 -12 -12 -8 -7 4 -8 3 -4 -4 4 -7 2 -12 -3 -12
-6 0 -11 -8 -11 -17 0 -14 2 -15 9 -4 7 11 10 11 14 0 4 -8 5 -5 4 6 -1 11 3
19 9 18 7 -1 10 6 7 17 -6 24 -13 26 -13 4z"/>
<path d="M1976 3572 c-3 -6 -1 -14 5 -17 14 -9 20 -2 10 14 -6 8 -11 9 -15 3z"/>
<path d="M5452 2363 c-6 -20 -7 -32 -2 -27 10 10 25 64 18 64 -3 0 -10 -16
-16 -37z"/>
<path d="M5507 2381 c-4 -17 -3 -21 5 -13 5 5 8 16 6 23 -3 8 -7 3 -11 -10z"/>
<path d="M5326 2113 c-6 -14 -5 -15 5 -6 7 7 10 15 7 18 -3 3 -9 -2 -12 -12z"/>
<path d="M1072 2215 c9 -11 42 -69 73 -130 67 -130 230 -368 327 -478 37 -43
68 -74 68 -70 0 4 -28 40 -61 78 -116 133 -260 348 -343 513 -19 37 -44 76
-57 87 l-24 20 17 -20z"/>
<path d="M1550 1517 c0 -2 15 -16 33 -33 l32 -29 -29 33 c-28 30 -36 37 -36
29z"/>
<path d="M4360 6340 c8 -5 20 -10 25 -10 6 0 3 5 -5 10 -8 5 -19 10 -25 10 -5
0 -3 -5 5 -10z"/>
<path d="M4401 6326 c2 -2 45 -21 94 -42 268 -113 595 -317 830 -517 102 -87
346 -337 422 -434 36 -45 68 -83 71 -83 5 0 6 -1 -98 130 -106 132 -324 350
-458 457 -148 119 -375 267 -537 350 -156 79 -350 163 -324 139z"/>
<path d="M1200 5676 c0 -2 8 -10 18 -17 15 -13 16 -12 3 4 -13 16 -21 21 -21
13z"/>
<path d="M1075 5650 c-3 -5 -1 -10 4 -10 6 0 11 5 11 10 0 6 -2 10 -4 10 -3 0
-8 -4 -11 -10z"/>
<path d="M1018 5619 c-20 -21 -33 -59 -20 -59 6 0 13 12 17 27 5 22 8 24 17
12 8 -11 9 -11 5 3 -3 9 -1 18 6 21 6 2 7 6 2 9 -6 2 -17 -3 -27 -13z"/>
<path d="M956 5553 c-6 -14 -5 -15 5 -6 7 7 10 15 7 18 -3 3 -9 -2 -12 -12z"/>
<path d="M5855 5190 c10 -11 20 -20 23 -20 3 0 -3 9 -13 20 -10 11 -20 20 -23
20 -3 0 3 -9 13 -20z"/>
<path d="M6381 4044 c0 -11 3 -14 6 -6 3 7 2 16 -1 19 -3 4 -6 -2 -5 -13z"/>
<path d="M6391 3994 c0 -11 3 -14 6 -6 3 7 2 16 -1 19 -3 4 -6 -2 -5 -13z"/>
<path d="M6102 3440 c0 -14 2 -19 5 -12 2 6 2 18 0 25 -3 6 -5 1 -5 -13z"/>
</g>
</svg>
